<?xml version="1.0" standalone="no"?>
<!DOCTYPE svg PUBLIC "-//W3C//DTD SVG 20010904//EN"
 "http://www.w3.org/TR/2001/REC-SVG-20010904/DTD/svg10.dtd">
<svg version="1.0" xmlns="http://www.w3.org/2000/svg"
 width="500.000000pt" height="500.000000pt" viewBox="0 0 500.000000 500.000000"
 preserveAspectRatio="xMidYMid meet">

<g transform="translate(0.000000,500.000000) scale(0.100000,-0.100000)"
fill="#000000" stroke="none">
<path d="M759 2543 c-1 -241 -1 -456 -2 -478 l0 -40 1801 -3 1802 -2 0 480 0
480 -1800 0 -1800 0 -1 -437z m3571 -43 l0 -450 -1775 0 -1775 0 0 450 0 450
1775 0 1775 0 0 -450z"/>
<path d="M850 2500 l0 -390 665 0 665 0 0 390 0 390 -665 0 -665 0 0 -390z
m397 115 c13 -14 23 -33 23 -41 0 -23 -26 -16 -44 11 -22 33 -89 36 -106 4
-16 -29 0 -45 64 -63 29 -9 60 -24 69 -34 36 -39 7 -110 -45 -114 -51 -3 -84
5 -105 25 -26 23 -30 57 -8 57 8 0 15 -4 15 -9 0 -20 33 -41 65 -41 31 0 65
21 65 39 0 15 -35 38 -78 50 -54 15 -82 43 -82 79 0 48 41 74 105 67 27 -2 47
-12 62 -30z m149 -70 c16 -52 32 -95 35 -95 4 0 22 42 41 92 22 63 39 94 51
96 9 2 19 -2 22 -10 2 -7 20 -53 38 -103 l34 -90 34 103 c24 74 38 102 50 102
14 0 10 -19 -25 -130 -52 -165 -60 -167 -111 -29 -21 55 -41 96 -45 92 -4 -4
-22 -50 -41 -100 -45 -126 -55 -124 -101 20 -20 61 -40 120 -43 130 -5 13 -2
17 12 17 16 0 25 -18 49 -95z m554 80 c0 -12 -13 -15 -60 -15 l-60 0 0 -40 0
-40 55 0 c42 0 55 -3 55 -15 0 -12 -13 -15 -55 -15 l-55 0 0 -45 0 -45 65 0
c51 0 65 -3 65 -15 0 -12 -16 -15 -85 -15 l-85 0 0 130 0 130 80 0 c64 0 80
-3 80 -15z"/>
<path d="M2354 2639 c-50 -14 -77 -51 -82 -112 -8 -95 39 -147 132 -147 59 0
92 16 118 58 16 27 18 36 8 42 -18 11 -61 2 -82 -17 -25 -23 -69 -19 -90 7
-25 30 -23 56 7 85 30 30 52 31 81 4 15 -14 32 -19 57 -17 l36 3 -15 32 c-10
20 -32 40 -58 53 -45 22 -64 23 -112 9z"/>
<path d="M2643 2631 c-94 -43 -100 -183 -11 -236 37 -22 121 -22 154 0 93 61
80 197 -23 241 -43 19 -70 17 -120 -5z m107 -71 c24 -24 26 -72 4 -94 -24 -24
-80 -20 -98 6 -22 32 -20 55 9 83 29 30 58 32 85 5z"/>
<path d="M3785 2643 c-32 -9 -65 -34 -81 -64 -19 -37 -18 -104 2 -139 49 -83
196 -83 239 0 8 16 15 33 15 38 0 15 -73 2 -92 -15 -22 -20 -65 -20 -85 -1
-23 24 -20 78 7 100 29 23 55 23 80 -2 12 -12 33 -20 55 -20 40 0 40 1 19 41
-24 47 -100 77 -159 62z"/>
<path d="M2890 2510 l0 -130 39 0 38 0 -1 60 c-1 33 1 60 5 60 3 0 25 -27 49
-60 38 -53 48 -60 77 -60 l33 0 0 130 0 130 -40 0 -39 0 -3 -62 -3 -63 -45 62
c-39 54 -49 62 -77 63 l-33 0 0 -130z"/>
<path d="M3180 2510 l0 -130 40 0 39 0 3 62 3 63 45 -62 c39 -54 49 -62 78
-63 l32 0 0 130 0 130 -40 0 -39 0 -3 -61 -3 -61 -44 61 c-39 54 -48 61 -78
61 l-33 0 0 -130z"/>
<path d="M3479 2636 c-2 -2 -3 -61 -1 -130 l3 -126 90 0 89 0 0 30 c0 30 -1
30 -55 30 -48 0 -55 2 -55 20 0 17 7 20 45 20 43 0 45 1 45 30 0 29 -2 30 -45
30 -38 0 -45 3 -45 20 0 17 7 20 50 20 33 0 50 4 51 13 0 6 2 20 4 30 3 15 -6
17 -84 17 -48 0 -90 -2 -92 -4z"/>
<path d="M3990 2605 c0 -34 1 -35 41 -35 l40 0 -3 -95 -3 -95 38 0 37 0 0 95
0 95 40 0 c39 0 40 1 40 35 l0 35 -115 0 -115 0 0 -35z"/>
</g>
</svg>
