<?xml version="1.0" standalone="no"?>
<!DOCTYPE svg PUBLIC "-//W3C//DTD SVG 20010904//EN"
 "http://www.w3.org/TR/2001/REC-SVG-20010904/DTD/svg10.dtd">
<svg version="1.0" xmlns="http://www.w3.org/2000/svg"
 width="370.000000pt" height="104.000000pt" viewBox="0 0 370.000000 104.000000"
 preserveAspectRatio="xMidYMid meet">

<g transform="translate(0.000000,104.000000) scale(0.100000,-0.100000)"
fill="#000000" stroke="none">
<path d="M60 520 l0 -480 1800 0 1800 0 0 480 0 480 -1800 0 -1800 0 0 -480z
m3570 0 l0 -450 -1775 0 -1775 0 0 450 0 450 1775 0 1775 0 0 -450z"/>
<path d="M150 520 l0 -390 665 0 665 0 0 390 0 390 -665 0 -665 0 0 -390z
m397 115 c24 -27 30 -55 13 -55 -6 0 -20 11 -32 25 -27 32 -92 35 -107 6 -14
-26 4 -45 63 -65 27 -9 58 -23 68 -33 21 -19 24 -61 5 -86 -27 -38 -117 -38
-158 -1 -23 20 -25 54 -4 54 8 0 15 -4 15 -9 0 -20 33 -41 65 -41 31 0 65 21
65 39 0 14 -23 29 -83 51 -31 12 -62 30 -67 40 -22 42 -6 85 40 103 33 14 95
-1 117 -28z m149 -70 c16 -52 32 -95 35 -95 4 0 22 43 40 95 26 72 38 95 52
95 10 0 20 -6 22 -12 3 -7 20 -53 39 -103 l34 -90 32 103 c25 78 37 102 50
102 16 0 13 -15 -23 -130 -52 -166 -60 -168 -112 -29 -21 55 -41 96 -45 92 -4
-4 -22 -50 -40 -100 -45 -127 -55 -125 -104 25 -21 64 -41 123 -43 130 -3 7 3
12 14 12 16 0 25 -18 49 -95z m554 80 c0 -12 -13 -15 -60 -15 l-60 0 0 -40 0
-40 55 0 c42 0 55 -3 55 -15 0 -12 -13 -15 -55 -15 l-55 0 0 -45 0 -45 65 0
c51 0 65 -3 65 -15 0 -12 -16 -15 -85 -15 l-85 0 0 130 0 130 80 0 c64 0 80
-3 80 -15z"/>
<path d="M1654 659 c-50 -14 -77 -51 -82 -112 -8 -95 39 -147 133 -147 55 0
95 21 120 62 13 23 14 32 6 38 -17 10 -63 0 -83 -18 -26 -22 -69 -18 -90 8
-23 29 -23 51 3 84 25 32 61 34 87 5 15 -15 29 -19 55 -17 l36 3 -16 34 c-11
22 -31 40 -57 52 -45 20 -65 22 -112 8z"/>
<path d="M1943 651 c-49 -23 -73 -62 -73 -121 0 -83 52 -130 143 -130 40 0 61
5 81 21 85 67 69 193 -31 235 -43 19 -70 17 -120 -5z m107 -71 c24 -24 26 -72
4 -94 -24 -24 -80 -20 -98 6 -22 32 -20 55 9 83 29 30 58 32 85 5z"/>
<path d="M3090 664 c-67 -24 -100 -68 -100 -134 0 -106 110 -167 209 -115 36
18 69 74 51 85 -18 11 -60 3 -81 -15 -24 -23 -69 -22 -86 1 -48 65 31 150 87
94 18 -18 90 -30 90 -15 0 17 -32 64 -54 78 -27 18 -92 30 -116 21z"/>
<path d="M2190 530 l0 -130 38 0 37 0 -1 60 c0 33 3 60 6 60 4 0 26 -27 50
-60 38 -53 48 -60 77 -60 l33 0 0 130 0 130 -40 0 -39 0 -3 -62 -3 -62 -45 62
c-39 54 -49 62 -77 62 l-33 0 0 -130z"/>
<path d="M2480 530 l0 -130 40 0 39 0 3 63 3 62 45 -62 c39 -54 49 -63 78 -63
l32 0 0 130 0 130 -40 0 -39 0 -3 -60 -3 -61 -44 61 c-39 53 -48 60 -77 60
l-34 0 0 -130z"/>
<path d="M2774 644 c3 -9 6 -67 6 -130 l0 -114 90 0 90 0 0 30 c0 30 -1 30
-55 30 -48 0 -55 2 -55 20 0 17 7 20 45 20 43 0 45 1 45 30 0 29 -2 30 -45 30
-38 0 -45 3 -45 19 0 17 8 20 52 23 48 3 51 5 52 31 l2 27 -94 0 c-82 0 -93
-2 -88 -16z"/>
<path d="M3288 626 c4 -32 7 -35 41 -38 l36 -3 0 -93 0 -92 38 0 37 0 0 95 0
95 40 0 c39 0 40 1 40 35 l0 35 -118 0 -118 0 4 -34z"/>
</g>
</svg>
